{
	"asset":{
		"generator":"Khronos glTF Blender I/O v4.0.44",
		"version":"2.0"
	},
	"scene":0,
	"scenes":[
		{
			"name":"Scene",
			"nodes":[
				0
			]
		}
	],
	"nodes":[
		{
			"mesh":0,
			"name":"Node",
			"rotation":[
				0.7067996263504028,
				0,
				0,
				0.7074138522148132
			]
		}
	],
	"materials":[
		{
			"name":"mat8",
			"pbrMetallicRoughness":{
				"baseColorFactor":[
					0.9100000262260437,
					0.05000000074505806,
					0.029999999329447746,
					1
				],
				"metallicFactor":0
			}
		},
		{
			"name":"mat21",
			"pbrMetallicRoughness":{
				"metallicFactor":0
			}
		},
		{
			"name":"mat22",
			"pbrMetallicRoughness":{
				"baseColorFactor":[
					0.3499999940395355,
					0.3499999940395355,
					0.3499999940395355,
					1
				],
				"metallicFactor":0
			}
		},
		{
			"name":"mat17",
			"pbrMetallicRoughness":{
				"baseColorFactor":[
					0.05999999865889549,
					0.10000000149011612,
					0.12999999523162842,
					1
				],
				"metallicFactor":0
			}
		},
		{
			"name":"mat11",
			"pbrMetallicRoughness":{
				"baseColorFactor":[
					0.00022863310005050153,
					0.30157604813575745,
					0.17114247381687164,
					1
				],
				"metallicFactor":0
			}
		},
		{
			"name":"mat23",
			"pbrMetallicRoughness":{
				"baseColorFactor":[
					0.009999999776482582,
					0.009999999776482582,
					0.009999999776482582,
					1
				],
				"metallicFactor":0
			}
		}
	],
	"meshes":[
		{
			"name":"Node-Mesh",
			"primitives":[
				{
					"attributes":{
						"POSITION":0,
						"NORMAL":1
					},
					"indices":2,
					"material":0
				},
				{
					"attributes":{
						"POSITION":3,
						"NORMAL":4
					},
					"indices":5,
					"material":1
				},
				{
					"attributes":{
						"POSITION":6,
						"NORMAL":7
					},
					"indices":8,
					"material":2
				},
				{
					"attributes":{
						"POSITION":9,
						"NORMAL":10
					},
					"indices":11,
					"material":3
				},
				{
					"attributes":{
						"POSITION":12,
						"NORMAL":13
					},
					"indices":14,
					"material":4
				},
				{
					"attributes":{
						"POSITION":15,
						"NORMAL":16
					},
					"indices":17,
					"material":5
				}
			]
		}
	],
	"accessors":[
		{
			"bufferView":0,
			"componentType":5126,
			"count":246,
			"max":[
				-0.24124999344348907,
				0.02863622084259987,
				0.15239860117435455
			],
			"min":[
				-0.3139582872390747,
				-0.051363710314035416,
				0.07515683770179749
			],
			"type":"VEC3"
		},
		{
			"bufferView":1,
			"componentType":5126,
			"count":246,
			"type":"VEC3"
		},
		{
			"bufferView":2,
			"componentType":5123,
			"count":270,
			"type":"SCALAR"
		},
		{
			"bufferView":3,
			"componentType":5126,
			"count":7247,
			"max":[
				0.362395703792572,
				0.04863644018769264,
				0.15653599798679352
			],
			"min":[
				-0.37760409712791443,
				-0.16136319935321808,
				-0.3334640860557556
			],
			"type":"VEC3"
		},
		{
			"bufferView":4,
			"componentType":5126,
			"count":7247,
			"type":"VEC3"
		},
		{
			"bufferView":5,
			"componentType":5123,
			"count":8913,
			"type":"SCALAR"
		},
		{
			"bufferView":6,
			"componentType":5126,
			"count":55,
			"max":[
				0.0023957490921020508,
				0.02863645926117897,
				0.016536030918359756
			],
			"min":[
				-0.31760409474372864,
				-0.0013635159702971578,
				-0.24346399307250977
			],
			"type":"VEC3"
		},
		{
			"bufferView":7,
			"componentType":5126,
			"count":55,
			"type":"VEC3"
		},
		{
			"bufferView":8,
			"componentType":5123,
			"count":69,
			"type":"SCALAR"
		},
		{
			"bufferView":9,
			"componentType":5126,
			"count":8210,
			"max":[
				0.32239580154418945,
				0.02863645926117897,
				0.056535959243774414
			],
			"min":[
				0.022395789623260498,
				0.018636470660567284,
				-0.24346399307250977
			],
			"type":"VEC3"
		},
		{
			"bufferView":10,
			"componentType":5126,
			"count":8210,
			"type":"VEC3"
		},
		{
			"bufferView":11,
			"componentType":5123,
			"count":10644,
			"type":"SCALAR"
		},
		{
			"bufferView":12,
			"componentType":5126,
			"count":30,
			"max":[
				-0.01596660539507866,
				0.02863645926117897,
				-0.04327406734228134
			],
			"min":[
				-0.29760420322418213,
				-0.0013635159702971578,
				-0.22346410155296326
			],
			"type":"VEC3"
		},
		{
			"bufferView":13,
			"componentType":5126,
			"count":30,
			"type":"VEC3"
		},
		{
			"bufferView":14,
			"componentType":5123,
			"count":42,
			"type":"SCALAR"
		},
		{
			"bufferView":15,
			"componentType":5126,
			"count":48,
			"max":[
				0.29239580035209656,
				0.038809884339571,
				-0.2734641134738922
			],
			"min":[
				-0.3080960810184479,
				-0.02197212725877762,
				-0.33404138684272766
			],
			"type":"VEC3"
		},
		{
			"bufferView":16,
			"componentType":5126,
			"count":48,
			"type":"VEC3"
		},
		{
			"bufferView":17,
			"componentType":5123,
			"count":72,
			"type":"SCALAR"
		}
	],
	"bufferViews":[
		{
			"buffer":0,
			"byteLength":2952,
			"byteOffset":0,
			"target":34962
		},
		{
			"buffer":0,
			"byteLength":2952,
			"byteOffset":2952,
			"target":34962
		},
		{
			"buffer":0,
			"byteLength":540,
			"byteOffset":5904,
			"target":34963
		},
		{
			"buffer":0,
			"byteLength":86964,
			"byteOffset":6444,
			"target":34962
		},
		{
			"buffer":0,
			"byteLength":86964,
			"byteOffset":93408,
			"target":34962
		},
		{
			"buffer":0,
			"byteLength":17826,
			"byteOffset":180372,
			"target":34963
		},
		{
			"buffer":0,
			"byteLength":660,
			"byteOffset":198200,
			"target":34962
		},
		{
			"buffer":0,
			"byteLength":660,
			"byteOffset":198860,
			"target":34962
		},
		{
			"buffer":0,
			"byteLength":138,
			"byteOffset":199520,
			"target":34963
		},
		{
			"buffer":0,
			"byteLength":98520,
			"byteOffset":199660,
			"target":34962
		},
		{
			"buffer":0,
			"byteLength":98520,
			"byteOffset":298180,
			"target":34962
		},
		{
			"buffer":0,
			"byteLength":21288,
			"byteOffset":396700,
			"target":34963
		},
		{
			"buffer":0,
			"byteLength":360,
			"byteOffset":417988,
			"target":34962
		},
		{
			"buffer":0,
			"byteLength":360,
			"byteOffset":418348,
			"target":34962
		},
		{
			"buffer":0,
			"byteLength":84,
			"byteOffset":418708,
			"target":34963
		},
		{
			"buffer":0,
			"byteLength":576,
			"byteOffset":418792,
			"target":34962
		},
		{
			"buffer":0,
			"byteLength":576,
			"byteOffset":419368,
			"target":34962
		},
		{
			"buffer":0,
			"byteLength":144,
			"byteOffset":419944,
			"target":34963
		}
	],
	"buffers":[
		{
			"byteLength":420088,
			"uri":"casette.bin"
		}
	]
}
