{
	"asset":{
		"generator":"Khronos glTF Blender I/O v4.0.44",
		"version":"2.0"
	},
	"scene":0,
	"scenes":[
		{
			"name":"Scene",
			"nodes":[
				0
			]
		}
	],
	"nodes":[
		{
			"mesh":0,
			"name":"group799403676",
			"rotation":[
				0.013671747408807278,
				0.12907464802265167,
				0.016760211437940598,
				0.9913989901542664
			],
			"translation":[
				0,
				0.0879068374633789,
				0
			]
		}
	],
	"materials":[
		{
			"name":"mat15",
			"pbrMetallicRoughness":{
				"baseColorFactor":[
					0.871513307094574,
					0.9734026193618774,
					0.9999275803565979,
					1
				],
				"metallicFactor":0
			}
		},
		{
			"name":"mat16",
			"pbrMetallicRoughness":{
				"baseColorFactor":[
					0.871513307094574,
					0.9734026193618774,
					0.9999275803565979,
					1
				],
				"metallicFactor":0
			}
		},
		{
			"name":"mat17",
			"pbrMetallicRoughness":{
				"baseColorFactor":[
					0.02708297222852707,
					0.12330283224582672,
					0.2585453987121582,
					1
				],
				"metallicFactor":0
			}
		},
		{
			"name":"mat21",
			"pbrMetallicRoughness":{
				"metallicFactor":0
			}
		},
		{
			"name":"mat23",
			"pbrMetallicRoughness":{
				"baseColorFactor":[
					0.009999999776482582,
					0.009999999776482582,
					0.009999999776482582,
					1
				],
				"metallicFactor":0
			}
		},
		{
			"alphaMode":"BLEND",
			"doubleSided":true,
			"name":"mat24",
			"pbrMetallicRoughness":{
				"baseColorFactor":[
					0.9321557283401489,
					1,
					0.9773426651954651,
					0.4000000059604645
				],
				"metallicFactor":0,
				"roughnessFactor":0.699999988079071
			}
		}
	],
	"meshes":[
		{
			"name":"mesh799403676",
			"primitives":[
				{
					"attributes":{
						"POSITION":0,
						"NORMAL":1,
						"TEXCOORD_0":2
					},
					"indices":3,
					"material":0
				},
				{
					"attributes":{
						"POSITION":4,
						"NORMAL":5,
						"TEXCOORD_0":6
					},
					"indices":7,
					"material":1
				},
				{
					"attributes":{
						"POSITION":8,
						"NORMAL":9,
						"TEXCOORD_0":10
					},
					"indices":11,
					"material":2
				},
				{
					"attributes":{
						"POSITION":12,
						"NORMAL":13,
						"TEXCOORD_0":14
					},
					"indices":15,
					"material":3
				},
				{
					"attributes":{
						"POSITION":16,
						"NORMAL":17,
						"TEXCOORD_0":18
					},
					"indices":19,
					"material":4
				},
				{
					"attributes":{
						"POSITION":20,
						"NORMAL":21,
						"TEXCOORD_0":22
					},
					"indices":23,
					"material":5
				}
			]
		}
	],
	"accessors":[
		{
			"bufferView":0,
			"componentType":5126,
			"count":24,
			"max":[
				0.24855250120162964,
				-0.08395957946777344,
				0.1782941073179245
			],
			"min":[
				-0.27464941143989563,
				-0.23113609850406647,
				-0.09854090213775635
			],
			"type":"VEC3"
		},
		{
			"bufferView":1,
			"componentType":5126,
			"count":24,
			"type":"VEC3"
		},
		{
			"bufferView":2,
			"componentType":5126,
			"count":24,
			"type":"VEC2"
		},
		{
			"bufferView":3,
			"componentType":5123,
			"count":39,
			"type":"SCALAR"
		},
		{
			"bufferView":4,
			"componentType":5126,
			"count":45,
			"max":[
				0.25175461173057556,
				0.050238851457834244,
				0.1746249943971634
			],
			"min":[
				-0.2714473009109497,
				-0.09693765640258789,
				-0.1022099032998085
			],
			"type":"VEC3"
		},
		{
			"bufferView":5,
			"componentType":5126,
			"count":45,
			"type":"VEC3"
		},
		{
			"bufferView":6,
			"componentType":5126,
			"count":45,
			"type":"VEC2"
		},
		{
			"bufferView":7,
			"componentType":5123,
			"count":75,
			"type":"SCALAR"
		},
		{
			"bufferView":8,
			"componentType":5126,
			"count":147,
			"max":[
				0.2321573942899704,
				0.045760270208120346,
				0.06591082364320755
			],
			"min":[
				-0.21621760725975037,
				-0.18536649644374847,
				-0.10111170262098312
			],
			"type":"VEC3"
		},
		{
			"bufferView":9,
			"componentType":5126,
			"count":147,
			"type":"VEC3"
		},
		{
			"bufferView":10,
			"componentType":5126,
			"count":147,
			"type":"VEC2"
		},
		{
			"bufferView":11,
			"componentType":5123,
			"count":228,
			"type":"SCALAR"
		},
		{
			"bufferView":12,
			"componentType":5126,
			"count":120,
			"max":[
				0.07489710301160812,
				0.04231930151581764,
				0.013272999785840511
			],
			"min":[
				-0.06544913351535797,
				0.013028030283749104,
				-0.04867202043533325
			],
			"type":"VEC3"
		},
		{
			"bufferView":13,
			"componentType":5126,
			"count":120,
			"type":"VEC3"
		},
		{
			"bufferView":14,
			"componentType":5126,
			"count":120,
			"type":"VEC2"
		},
		{
			"bufferView":15,
			"componentType":5123,
			"count":180,
			"type":"SCALAR"
		},
		{
			"bufferView":16,
			"componentType":5126,
			"count":272,
			"max":[
				0.2103462964296341,
				0.13527999818325043,
				0.14357919991016388
			],
			"min":[
				-0.2131219059228897,
				-0.16054220497608185,
				-0.10423900187015533
			],
			"type":"VEC3"
		},
		{
			"bufferView":17,
			"componentType":5126,
			"count":272,
			"type":"VEC3"
		},
		{
			"bufferView":18,
			"componentType":5126,
			"count":272,
			"type":"VEC2"
		},
		{
			"bufferView":19,
			"componentType":5123,
			"count":444,
			"type":"SCALAR"
		},
		{
			"bufferView":20,
			"componentType":5126,
			"count":26,
			"max":[
				0.06355369836091995,
				-0.007972002029418945,
				-0.016309980303049088
			],
			"min":[
				-0.04621155932545662,
				-0.04329228028655052,
				-0.058468159288167953
			],
			"type":"VEC3"
		},
		{
			"bufferView":21,
			"componentType":5126,
			"count":26,
			"type":"VEC3"
		},
		{
			"bufferView":22,
			"componentType":5126,
			"count":26,
			"type":"VEC2"
		},
		{
			"bufferView":23,
			"componentType":5123,
			"count":36,
			"type":"SCALAR"
		}
	],
	"bufferViews":[
		{
			"buffer":0,
			"byteLength":288,
			"byteOffset":0,
			"target":34962
		},
		{
			"buffer":0,
			"byteLength":288,
			"byteOffset":288,
			"target":34962
		},
		{
			"buffer":0,
			"byteLength":192,
			"byteOffset":576,
			"target":34962
		},
		{
			"buffer":0,
			"byteLength":78,
			"byteOffset":768,
			"target":34963
		},
		{
			"buffer":0,
			"byteLength":540,
			"byteOffset":848,
			"target":34962
		},
		{
			"buffer":0,
			"byteLength":540,
			"byteOffset":1388,
			"target":34962
		},
		{
			"buffer":0,
			"byteLength":360,
			"byteOffset":1928,
			"target":34962
		},
		{
			"buffer":0,
			"byteLength":150,
			"byteOffset":2288,
			"target":34963
		},
		{
			"buffer":0,
			"byteLength":1764,
			"byteOffset":2440,
			"target":34962
		},
		{
			"buffer":0,
			"byteLength":1764,
			"byteOffset":4204,
			"target":34962
		},
		{
			"buffer":0,
			"byteLength":1176,
			"byteOffset":5968,
			"target":34962
		},
		{
			"buffer":0,
			"byteLength":456,
			"byteOffset":7144,
			"target":34963
		},
		{
			"buffer":0,
			"byteLength":1440,
			"byteOffset":7600,
			"target":34962
		},
		{
			"buffer":0,
			"byteLength":1440,
			"byteOffset":9040,
			"target":34962
		},
		{
			"buffer":0,
			"byteLength":960,
			"byteOffset":10480,
			"target":34962
		},
		{
			"buffer":0,
			"byteLength":360,
			"byteOffset":11440,
			"target":34963
		},
		{
			"buffer":0,
			"byteLength":3264,
			"byteOffset":11800,
			"target":34962
		},
		{
			"buffer":0,
			"byteLength":3264,
			"byteOffset":15064,
			"target":34962
		},
		{
			"buffer":0,
			"byteLength":2176,
			"byteOffset":18328,
			"target":34962
		},
		{
			"buffer":0,
			"byteLength":888,
			"byteOffset":20504,
			"target":34963
		},
		{
			"buffer":0,
			"byteLength":312,
			"byteOffset":21392,
			"target":34962
		},
		{
			"buffer":0,
			"byteLength":312,
			"byteOffset":21704,
			"target":34962
		},
		{
			"buffer":0,
			"byteLength":208,
			"byteOffset":22016,
			"target":34962
		},
		{
			"buffer":0,
			"byteLength":72,
			"byteOffset":22224,
			"target":34963
		}
	],
	"buffers":[
		{
			"byteLength":22296,
			"uri":"boombox.bin"
		}
	]
}
