{
	"asset":{
		"generator":"Khronos glTF Blender I/O v4.0.44",
		"version":"2.0"
	},
	"scene":0,
	"scenes":[
		{
			"name":"Scene",
			"nodes":[
				5
			]
		}
	],
	"nodes":[
		{
			"mesh":0,
			"name":"Object_4"
		},
		{
			"mesh":1,
			"name":"Object_7"
		},
		{
			"mesh":2,
			"name":"Object_9"
		},
		{
			"children":[
				0,
				1,
				2
			],
			"name":"Object_2"
		},
		{
			"children":[
				3
			],
			"name":"phone.obj.cleaner.materialmerger.gles",
			"translation":[
				-4.052378177642822,
				-4.052378177642822,
				0
			]
		},
		{
			"children":[
				4
			],
			"name":"Sketchfab_model",
			"rotation":[
				-0.70710688829422,
				0,
				0,
				0.7071066498756409
			]
		}
	],
	"materials":[
		{
			"doubleSided":true,
			"name":"base",
			"pbrMetallicRoughness":{
				"baseColorFactor":[
					0.0011099359253421426,
					0,
					0.019087448716163635,
					1
				],
				"metallicFactor":0.5017149448394775,
				"roughnessFactor":0.11413872241973877
			}
		},
		{
			"doubleSided":true,
			"name":"front",
			"pbrMetallicRoughness":{
				"baseColorFactor":[
					0.009615739807486534,
					0.009615739807486534,
					0.009615739807486534,
					1
				],
				"metallicFactor":0.6053735017776489,
				"roughnessFactor":0.0287728663533926
			}
		},
		{
			"doubleSided":true,
			"emissiveFactor":[
				1,
				1,
				1
			],
			"emissiveTexture":{
				"index":0
			},
			"name":"screen",
			"pbrMetallicRoughness":{
				"baseColorTexture":{
					"index":1
				},
				"metallicFactor":0,
				"roughnessFactor":0
			}
		}
	],
	"meshes":[
		{
			"name":"Object_1",
			"primitives":[
				{
					"attributes":{
						"POSITION":0,
						"NORMAL":1,
						"TEXCOORD_0":2
					},
					"indices":3,
					"material":0
				}
			]
		},
		{
			"name":"Object_4",
			"primitives":[
				{
					"attributes":{
						"POSITION":4,
						"NORMAL":5,
						"TEXCOORD_0":6
					},
					"indices":7,
					"material":1
				}
			]
		},
		{
			"name":"Object_6",
			"primitives":[
				{
					"attributes":{
						"POSITION":8,
						"NORMAL":9,
						"TEXCOORD_0":10
					},
					"indices":11,
					"material":2
				}
			]
		}
	],
	"textures":[
		{
			"sampler":0,
			"source":0
		},
		{
			"sampler":0,
			"source":0
		}
	],
	"images":[
		{
			"mimeType":"image/jpeg",
			"name":"screen_baseColor",
			"uri":"screen_baseColor.jpg"
		}
	],
	"accessors":[
		{
			"bufferView":0,
			"componentType":5126,
			"count":7794,
			"max":[
				6.261028289794922,
				4.295382022857666,
				9.780271530151367
			],
			"min":[
				1.8322222232818604,
				3.8565752506256104,
				0.2197279930114746
			],
			"type":"VEC3"
		},
		{
			"bufferView":1,
			"componentType":5126,
			"count":7794,
			"type":"VEC3"
		},
		{
			"bufferView":2,
			"componentType":5126,
			"count":7794,
			"type":"VEC2"
		},
		{
			"bufferView":3,
			"componentType":5123,
			"count":45006,
			"type":"SCALAR"
		},
		{
			"bufferView":4,
			"componentType":5126,
			"count":825,
			"max":[
				6.197285175323486,
				3.8615002632141113,
				9.6929349899292
			],
			"min":[
				1.9074711799621582,
				3.8331732749938965,
				0.3070650100708008
			],
			"type":"VEC3"
		},
		{
			"bufferView":5,
			"componentType":5126,
			"count":825,
			"type":"VEC3"
		},
		{
			"bufferView":6,
			"componentType":5126,
			"count":825,
			"type":"VEC2"
		},
		{
			"bufferView":7,
			"componentType":5123,
			"count":3012,
			"type":"SCALAR"
		},
		{
			"bufferView":8,
			"componentType":5126,
			"count":469,
			"max":[
				6.173827171325684,
				3.8331732749938965,
				9.328001022338867
			],
			"min":[
				1.930929183959961,
				3.8331732749938965,
				0.6883599758148193
			],
			"type":"VEC3"
		},
		{
			"bufferView":9,
			"componentType":5126,
			"count":469,
			"type":"VEC3"
		},
		{
			"bufferView":10,
			"componentType":5126,
			"count":469,
			"type":"VEC2"
		},
		{
			"bufferView":11,
			"componentType":5123,
			"count":2184,
			"type":"SCALAR"
		}
	],
	"bufferViews":[
		{
			"buffer":0,
			"byteLength":93528,
			"byteOffset":0,
			"target":34962
		},
		{
			"buffer":0,
			"byteLength":93528,
			"byteOffset":93528,
			"target":34962
		},
		{
			"buffer":0,
			"byteLength":62352,
			"byteOffset":187056,
			"target":34962
		},
		{
			"buffer":0,
			"byteLength":90012,
			"byteOffset":249408,
			"target":34963
		},
		{
			"buffer":0,
			"byteLength":9900,
			"byteOffset":339420,
			"target":34962
		},
		{
			"buffer":0,
			"byteLength":9900,
			"byteOffset":349320,
			"target":34962
		},
		{
			"buffer":0,
			"byteLength":6600,
			"byteOffset":359220,
			"target":34962
		},
		{
			"buffer":0,
			"byteLength":6024,
			"byteOffset":365820,
			"target":34963
		},
		{
			"buffer":0,
			"byteLength":5628,
			"byteOffset":371844,
			"target":34962
		},
		{
			"buffer":0,
			"byteLength":5628,
			"byteOffset":377472,
			"target":34962
		},
		{
			"buffer":0,
			"byteLength":3752,
			"byteOffset":383100,
			"target":34962
		},
		{
			"buffer":0,
			"byteLength":4368,
			"byteOffset":386852,
			"target":34963
		}
	],
	"samplers":[
		{
			"magFilter":9729,
			"minFilter":9987
		}
	],
	"buffers":[
		{
			"byteLength":391220,
			"uri":"scene.bin"
		}
	]
}
