{
	"asset":{
		"generator":"Khronos glTF Blender I/O v4.0.44",
		"version":"2.0"
	},
	"scene":0,
	"scenes":[
		{
			"name":"Scene",
			"nodes":[
				9
			]
		}
	],
	"nodes":[
		{
			"mesh":0,
			"name":"Object_10"
		},
		{
			"mesh":1,
			"name":"Object_4"
		},
		{
			"mesh":2,
			"name":"Object_5"
		},
		{
			"mesh":3,
			"name":"Object_6"
		},
		{
			"mesh":4,
			"name":"Object_7"
		},
		{
			"mesh":5,
			"name":"Object_8"
		},
		{
			"mesh":6,
			"name":"Object_9"
		},
		{
			"children":[
				0,
				1,
				2,
				3,
				4,
				5,
				6
			],
			"name":"Object_2"
		},
		{
			"children":[
				7
			],
			"name":"phone.obj.cleaner.materialmerger.gles",
			"translation":[
				-4.052378177642822,
				-4.052378177642822,
				0
			]
		},
		{
			"children":[
				8
			],
			"name":"Sketchfab_model",
			"rotation":[
				-0.70710688829422,
				0,
				0,
				0.7071066498756409
			]
		}
	],
	"materials":[
		{
			"doubleSided":true,
			"name":"lens",
			"pbrMetallicRoughness":{
				"baseColorTexture":{
					"index":0
				},
				"metallicFactor":0.44073933362960815,
				"roughnessFactor":0.04096798598766327
			}
		},
		{
			"doubleSided":true,
			"name":"base",
			"pbrMetallicRoughness":{
				"baseColorFactor":[
					0.0011099359253421426,
					0,
					0.019087448716163635,
					1
				],
				"metallicFactor":0.5017149448394775,
				"roughnessFactor":0.11413872241973877
			}
		},
		{
			"doubleSided":true,
			"name":"black",
			"pbrMetallicRoughness":{
				"baseColorFactor":[
					0,
					0,
					0,
					1
				],
				"metallicFactor":0,
				"roughnessFactor":0.6000000238418579
			}
		},
		{
			"doubleSided":true,
			"name":"flash",
			"pbrMetallicRoughness":{
				"baseColorTexture":{
					"index":1
				},
				"metallicFactor":0.8736661672592163,
				"roughnessFactor":0.0653582289814949
			}
		},
		{
			"doubleSided":true,
			"name":"front",
			"pbrMetallicRoughness":{
				"baseColorFactor":[
					0.009615739807486534,
					0.009615739807486534,
					0.009615739807486534,
					1
				],
				"metallicFactor":0.6053735017776489,
				"roughnessFactor":0.0287728663533926
			}
		},
		{
			"doubleSided":true,
			"name":"logo",
			"pbrMetallicRoughness":{
				"baseColorFactor":[
					0.5978448987007141,
					0.5978448987007141,
					0.5978448987007141,
					1
				],
				"metallicFactor":0,
				"roughnessFactor":0.6000000238418579
			}
		},
		{
			"doubleSided":true,
			"emissiveFactor":[
				1,
				1,
				1
			],
			"emissiveTexture":{
				"index":2
			},
			"name":"screen",
			"pbrMetallicRoughness":{
				"baseColorTexture":{
					"index":3
				},
				"metallicFactor":0,
				"roughnessFactor":0
			}
		}
	],
	"meshes":[
		{
			"name":"Object_7",
			"primitives":[
				{
					"attributes":{
						"POSITION":0,
						"NORMAL":1,
						"TEXCOORD_0":2
					},
					"indices":3,
					"material":0
				}
			]
		},
		{
			"name":"Object_1",
			"primitives":[
				{
					"attributes":{
						"POSITION":4,
						"NORMAL":5,
						"TEXCOORD_0":6
					},
					"indices":7,
					"material":1
				}
			]
		},
		{
			"name":"Object_2",
			"primitives":[
				{
					"attributes":{
						"POSITION":8,
						"NORMAL":9,
						"TEXCOORD_0":10
					},
					"indices":11,
					"material":2
				}
			]
		},
		{
			"name":"Object_3",
			"primitives":[
				{
					"attributes":{
						"POSITION":12,
						"NORMAL":13,
						"TEXCOORD_0":14
					},
					"indices":15,
					"material":3
				}
			]
		},
		{
			"name":"Object_4",
			"primitives":[
				{
					"attributes":{
						"POSITION":16,
						"NORMAL":17,
						"TEXCOORD_0":18
					},
					"indices":19,
					"material":4
				}
			]
		},
		{
			"name":"Object_5",
			"primitives":[
				{
					"attributes":{
						"POSITION":20,
						"NORMAL":21,
						"TEXCOORD_0":22
					},
					"indices":23,
					"material":5
				}
			]
		},
		{
			"name":"Object_6",
			"primitives":[
				{
					"attributes":{
						"POSITION":24,
						"NORMAL":25,
						"TEXCOORD_0":26
					},
					"indices":27,
					"material":6
				}
			]
		}
	],
	"textures":[
		{
			"sampler":0,
			"source":0
		},
		{
			"sampler":0,
			"source":1
		},
		{
			"sampler":0,
			"source":2
		},
		{
			"sampler":0,
			"source":2
		}
	],
	"images":[
		{
			"mimeType":"image/jpeg",
			"name":"lens_baseColor",
			"uri":"lens_baseColor.jpg"
		},
		{
			"mimeType":"image/png",
			"name":"flash_baseColor",
			"uri":"flash_baseColor.png"
		},
		{
			"mimeType":"image/jpeg",
			"name":"screen_baseColor",
			"uri":"screen_baseColor.jpg"
		}
	],
	"accessors":[
		{
			"bufferView":0,
			"componentType":5126,
			"count":289,
			"max":[
				5.381856918334961,
				4.282103061676025,
				9.613771438598633
			],
			"min":[
				2.5231292247772217,
				3.833132266998291,
				7.838277816772461
			],
			"type":"VEC3"
		},
		{
			"bufferView":1,
			"componentType":5126,
			"count":289,
			"type":"VEC3"
		},
		{
			"bufferView":2,
			"componentType":5126,
			"count":289,
			"type":"VEC2"
		},
		{
			"bufferView":3,
			"componentType":5123,
			"count":612,
			"type":"SCALAR"
		},
		{
			"bufferView":4,
			"componentType":5126,
			"count":7794,
			"max":[
				6.261028289794922,
				4.295382022857666,
				9.780271530151367
			],
			"min":[
				1.8322222232818604,
				3.8565752506256104,
				0.2197279930114746
			],
			"type":"VEC3"
		},
		{
			"bufferView":5,
			"componentType":5126,
			"count":7794,
			"type":"VEC3"
		},
		{
			"bufferView":6,
			"componentType":5126,
			"count":7794,
			"type":"VEC2"
		},
		{
			"bufferView":7,
			"componentType":5123,
			"count":45006,
			"type":"SCALAR"
		},
		{
			"bufferView":8,
			"componentType":5126,
			"count":189,
			"max":[
				5.488743305206299,
				4.192091941833496,
				0.36201900243759155
			],
			"min":[
				2.747230052947998,
				3.9457852840423584,
				0.21916399896144867
			],
			"type":"VEC3"
		},
		{
			"bufferView":9,
			"componentType":5126,
			"count":189,
			"type":"VEC3"
		},
		{
			"bufferView":10,
			"componentType":5126,
			"count":189,
			"type":"VEC2"
		},
		{
			"bufferView":11,
			"componentType":5123,
			"count":708,
			"type":"SCALAR"
		},
		{
			"bufferView":12,
			"componentType":5126,
			"count":457,
			"max":[
				4.823286056518555,
				4.271583080291748,
				8.546049118041992
			],
			"min":[
				4.56886625289917,
				4.271583080291748,
				7.9065070152282715
			],
			"type":"VEC3"
		},
		{
			"bufferView":13,
			"componentType":5126,
			"count":457,
			"type":"VEC3"
		},
		{
			"bufferView":14,
			"componentType":5126,
			"count":457,
			"type":"VEC2"
		},
		{
			"bufferView":15,
			"componentType":5123,
			"count":1608,
			"type":"SCALAR"
		},
		{
			"bufferView":16,
			"componentType":5126,
			"count":825,
			"max":[
				6.197285175323486,
				3.8615002632141113,
				9.6929349899292
			],
			"min":[
				1.9074711799621582,
				3.8331732749938965,
				0.3070650100708008
			],
			"type":"VEC3"
		},
		{
			"bufferView":17,
			"componentType":5126,
			"count":825,
			"type":"VEC3"
		},
		{
			"bufferView":18,
			"componentType":5126,
			"count":825,
			"type":"VEC2"
		},
		{
			"bufferView":19,
			"componentType":5123,
			"count":3012,
			"type":"SCALAR"
		},
		{
			"bufferView":20,
			"componentType":5126,
			"count":332,
			"max":[
				4.704636096954346,
				4.272587299346924,
				6.77432107925415
			],
			"min":[
				3.1854090690612793,
				4.272587299346924,
				6.551644802093506
			],
			"type":"VEC3"
		},
		{
			"bufferView":21,
			"componentType":5126,
			"count":332,
			"type":"VEC3"
		},
		{
			"bufferView":22,
			"componentType":5126,
			"count":332,
			"type":"VEC2"
		},
		{
			"bufferView":23,
			"componentType":5123,
			"count":771,
			"type":"SCALAR"
		},
		{
			"bufferView":24,
			"componentType":5126,
			"count":469,
			"max":[
				6.173827171325684,
				3.8331732749938965,
				9.328001022338867
			],
			"min":[
				1.930929183959961,
				3.8331732749938965,
				0.6883599758148193
			],
			"type":"VEC3"
		},
		{
			"bufferView":25,
			"componentType":5126,
			"count":469,
			"type":"VEC3"
		},
		{
			"bufferView":26,
			"componentType":5126,
			"count":469,
			"type":"VEC2"
		},
		{
			"bufferView":27,
			"componentType":5123,
			"count":2184,
			"type":"SCALAR"
		}
	],
	"bufferViews":[
		{
			"buffer":0,
			"byteLength":3468,
			"byteOffset":0,
			"target":34962
		},
		{
			"buffer":0,
			"byteLength":3468,
			"byteOffset":3468,
			"target":34962
		},
		{
			"buffer":0,
			"byteLength":2312,
			"byteOffset":6936,
			"target":34962
		},
		{
			"buffer":0,
			"byteLength":1224,
			"byteOffset":9248,
			"target":34963
		},
		{
			"buffer":0,
			"byteLength":93528,
			"byteOffset":10472,
			"target":34962
		},
		{
			"buffer":0,
			"byteLength":93528,
			"byteOffset":104000,
			"target":34962
		},
		{
			"buffer":0,
			"byteLength":62352,
			"byteOffset":197528,
			"target":34962
		},
		{
			"buffer":0,
			"byteLength":90012,
			"byteOffset":259880,
			"target":34963
		},
		{
			"buffer":0,
			"byteLength":2268,
			"byteOffset":349892,
			"target":34962
		},
		{
			"buffer":0,
			"byteLength":2268,
			"byteOffset":352160,
			"target":34962
		},
		{
			"buffer":0,
			"byteLength":1512,
			"byteOffset":354428,
			"target":34962
		},
		{
			"buffer":0,
			"byteLength":1416,
			"byteOffset":355940,
			"target":34963
		},
		{
			"buffer":0,
			"byteLength":5484,
			"byteOffset":357356,
			"target":34962
		},
		{
			"buffer":0,
			"byteLength":5484,
			"byteOffset":362840,
			"target":34962
		},
		{
			"buffer":0,
			"byteLength":3656,
			"byteOffset":368324,
			"target":34962
		},
		{
			"buffer":0,
			"byteLength":3216,
			"byteOffset":371980,
			"target":34963
		},
		{
			"buffer":0,
			"byteLength":9900,
			"byteOffset":375196,
			"target":34962
		},
		{
			"buffer":0,
			"byteLength":9900,
			"byteOffset":385096,
			"target":34962
		},
		{
			"buffer":0,
			"byteLength":6600,
			"byteOffset":394996,
			"target":34962
		},
		{
			"buffer":0,
			"byteLength":6024,
			"byteOffset":401596,
			"target":34963
		},
		{
			"buffer":0,
			"byteLength":3984,
			"byteOffset":407620,
			"target":34962
		},
		{
			"buffer":0,
			"byteLength":3984,
			"byteOffset":411604,
			"target":34962
		},
		{
			"buffer":0,
			"byteLength":2656,
			"byteOffset":415588,
			"target":34962
		},
		{
			"buffer":0,
			"byteLength":1542,
			"byteOffset":418244,
			"target":34963
		},
		{
			"buffer":0,
			"byteLength":5628,
			"byteOffset":419788,
			"target":34962
		},
		{
			"buffer":0,
			"byteLength":5628,
			"byteOffset":425416,
			"target":34962
		},
		{
			"buffer":0,
			"byteLength":3752,
			"byteOffset":431044,
			"target":34962
		},
		{
			"buffer":0,
			"byteLength":4368,
			"byteOffset":434796,
			"target":34963
		}
	],
	"samplers":[
		{
			"magFilter":9729,
			"minFilter":9987
		}
	],
	"buffers":[
		{
			"byteLength":439164,
			"uri":"scene.bin"
		}
	]
}
